<svg xmlns="http://www.w3.org/2000/svg" viewBox="0 0 167.18 152.01"><defs><style>.cls-1{fill:#e6e6e6;}</style></defs><title>pj-solo-logo-blanco</title><g id="Layer_2" data-name="Layer 2"><g id="Layer_1-2" data-name="Layer 1"><polyline class="cls-1" points="23.33 59.11 23.34 72.33 23.33 59.11 62.99 59.1 62.97 0.01 80.07 0 80.09 72.31 23.34 72.33"/><path class="cls-1" d="M0,0v72.7H15.94V52.49H55.59L56,52.1V0ZM40.43,38.88H16.33V12.45h24.1Z"/><polyline class="cls-1" points="110.41 59.11 110.42 72.33 110.41 59.11 150.07 59.1 150.05 0.01 167.16 0 167.18 72.31 110.42 72.33"/><path class="cls-1" d="M87.08,0v72.7H103V52.49h39.65l.39-.39V0Zm40.43,38.87h-24.1V12.45h24.1Z"/><polyline class="cls-1" points="23.33 138.41 23.34 151.63 23.33 138.41 62.99 138.4 62.97 79.31 80.07 79.31 80.09 151.62 23.34 151.63"/><path class="cls-1" d="M0,79.32V152H15.94V131.8H55.59l.39-.39V79.32Zm40.43,38.87H16.33V91.76h24.1Z"/><polyline class="cls-1" points="110.41 138.41 110.42 151.63 110.41 138.41 150.07 138.4 150.05 79.31 167.16 79.31 167.18 151.62 110.42 151.63"/><path class="cls-1" d="M87.08,79.32V152H103V131.8h39.65l.39-.39V79.32Zm40.43,38.87h-24.1V91.76h24.1Z"/></g></g></svg>